<svg width="16" height="16" viewBox="0 0 16 16" fill="none" xmlns="http://www.w3.org/2000/svg">
<path d="M15.8263 13.1382L9.15378 1.54474C8.65335 0.68288 7.34665 0.655078 6.84622 1.54474L0.173729 13.1382C-0.326708 14.0001 0.312739 15.1121 1.34141 15.1121H14.6586C15.6873 15.1121 16.3267 14.0279 15.8263 13.1382ZM8.0139 10.7194C8.70895 10.7194 9.29279 11.3033 9.29279 11.9983C9.29279 12.7212 8.70895 13.2772 8.0139 13.2772C7.29105 13.2772 6.73501 12.7212 6.73501 11.9983C6.73501 11.3033 7.29105 10.7194 8.0139 10.7194ZM6.79061 6.13208C6.76281 5.93746 6.92962 5.77065 7.12424 5.77065H8.87576C9.07038 5.77065 9.23719 5.93746 9.20939 6.13208L9.01477 9.91315C8.98697 10.1078 8.84796 10.219 8.68115 10.219H7.31885C7.15204 10.219 7.01303 10.1078 6.98523 9.91315L6.79061 6.13208Z" fill="currentColor"/>
</svg>
