<svg width="13" height="14" viewBox="0 0 13 14" fill="none" xmlns="http://www.w3.org/2000/svg">
<path d="M1.19608 12.7596C2.80897 14.3998 5.43332 14.4271 7.07354 12.7596L11.7755 7.94824C11.9395 7.78422 11.9395 7.51085 11.7482 7.34683L11.1194 6.71808C10.9554 6.55405 10.682 6.55405 10.518 6.71808L5.81604 11.5294C4.88658 12.4862 3.38304 12.4862 2.45359 11.5294C1.52413 10.5726 1.52413 8.98705 2.48092 8.03025L8.2217 2.15279C8.7411 1.63339 9.58855 1.63339 10.108 2.15279C10.6274 2.69953 10.6274 3.60165 10.108 4.1484L5.10528 9.26042C4.99593 9.36977 4.80457 9.36977 4.66789 9.26042C4.55854 9.12374 4.55854 8.8777 4.69522 8.74102L8.63176 4.74981C8.79578 4.55845 8.79578 4.28508 8.60442 4.12106L8.003 3.51964C7.81164 3.32828 7.53827 3.35562 7.37425 3.51964L3.43772 7.53819C2.64494 8.33096 2.61761 9.64314 3.41038 10.4633C4.20316 11.3107 5.54267 11.3107 6.36278 10.4906L11.3655 5.37856C12.5683 4.1484 12.541 2.15279 11.3655 0.922625C10.1353 -0.307542 8.16703 -0.307542 6.9642 0.922625L1.22342 6.80009C-0.389466 8.44031 -0.416803 11.092 1.19608 12.7596Z" fill="currentColor"/>
</svg>
