<svg width="16" height="16" viewBox="0 0 16 16" fill="none" xmlns="http://www.w3.org/2000/svg">
<path d="M0.5 9C0.225 9 0 9.225 0 9.5V10.5C0 10.775 0.225 11 0.5 11H4V9H0.5ZM15.7812 3.28125L12.7219 0.21875C12.5813 0.078125 12.3906 0 12.1906 0H12V4H16V3.80938C16 3.6125 15.9219 3.42188 15.7812 3.28125ZM11 4.25V0H4.75C4.33437 0 4 0.334375 4 0.75V9H8V6.9625C8 6.51562 8.54062 6.29375 8.85625 6.60938L11.8438 9.625C12.05 9.83438 12.05 10.1687 11.8438 10.375L8.85312 13.3875C8.5375 13.7031 7.99687 13.4812 7.99687 13.0344V11H4V15.25C4 15.6656 4.33437 16 4.75 16H15.25C15.6656 16 16 15.6656 16 15.25V5H11.75C11.3375 5 11 4.6625 11 4.25Z" fill="currentColor"/>
</svg>
