<svg width="21" height="18" viewBox="0 0 21 18" fill="none" xmlns="http://www.w3.org/2000/svg">
<path d="M14.1535 12.1203C14.0831 12.1907 14.0831 12.2611 14.0831 12.3315V16.31H1.68998V3.91687H10.1751C10.2455 3.91687 10.3159 3.91687 10.3863 3.84645L11.513 2.7198C11.689 2.54377 11.5482 2.22689 11.3017 2.22689H1.68998C0.739364 2.22689 0 3.00147 0 3.91687V16.31C0 17.2606 0.739364 18 1.68998 18H14.0831C14.9985 18 15.7731 17.2606 15.7731 16.31V11.2049C15.7731 10.9584 15.4562 10.8176 15.2802 10.9936L14.1535 12.1203ZM19.646 5.04352C20.4557 4.23374 20.4557 2.93105 19.646 2.12127L18.132 0.607335C17.3223 -0.202445 16.0196 -0.202445 15.2098 0.607335L5.98533 9.83178L5.63325 13.0357C5.52763 13.9511 6.3022 14.7257 7.2176 14.62L10.4215 14.268L19.646 5.04352ZM16.1956 6.09976L9.64694 12.6484L7.32323 12.9301L7.60489 10.6064L14.1535 4.0577L16.1956 6.09976ZM18.4489 3.31834C18.6249 3.45917 18.6249 3.67042 18.4841 3.84645L17.3927 4.9379L15.3506 2.86064L16.4068 1.8044C16.5477 1.62836 16.7941 1.62836 16.935 1.8044L18.4489 3.31834Z" fill="currentColor"/>
</svg>
