<svg width="22" height="20" viewBox="0 0 22 20" fill="none" xmlns="http://www.w3.org/2000/svg">
<path d="M21.0155 17.085L12.5719 1.8232C11.9386 0.688633 10.2851 0.652034 9.65178 1.8232L1.20813 17.085C0.574851 18.2195 1.38404 19.6835 2.68577 19.6835H19.5379C20.8396 19.6835 21.6488 18.2561 21.0155 17.085ZM11.1294 13.9009C12.009 13.9009 12.7478 14.6694 12.7478 15.5844C12.7478 16.536 12.009 17.268 11.1294 17.268C10.2147 17.268 9.51106 16.536 9.51106 15.5844C9.51106 14.6694 10.2147 13.9009 11.1294 13.9009ZM9.58142 7.86203C9.54624 7.60584 9.75733 7.38624 10.0036 7.38624H12.2201C12.4663 7.38624 12.6774 7.60584 12.6422 7.86203L12.396 12.8395C12.3608 13.0957 12.1849 13.2421 11.9738 13.2421H10.2499C10.0388 13.2421 9.86288 13.0957 9.82769 12.8395L9.58142 7.86203Z" fill="#currentColor"/>
</svg>
