<svg width="19" height="18" viewBox="0 0 19 18" fill="none" xmlns="http://www.w3.org/2000/svg">
<path d="M18.3179 0.871199L14.66 0.0270695C14.2731 -0.0784467 13.851 0.132586 13.6752 0.519479L11.9869 4.45875C11.8462 4.81047 11.9518 5.19736 12.2331 5.44357L14.3786 7.20217C13.1124 9.87525 10.8966 12.1263 8.15317 13.4276L6.39457 11.2821C6.14836 11.0008 5.76147 10.8952 5.40975 11.0359L1.47048 12.7242C1.08358 12.9 0.907724 13.3221 0.978069 13.709L1.8222 17.3669C1.92771 17.7538 2.24426 18 2.66633 18C11.6704 18 18.9862 10.7194 18.9862 1.68016C18.9862 1.29326 18.7048 0.976716 18.3179 0.871199Z" fill="currentColor"/>
</svg>
