<svg width="18" height="14" viewBox="0 0 18 14" fill="none" xmlns="http://www.w3.org/2000/svg">
<path d="M17.6484 4.71484C16.8398 5.34766 15.8203 6.12109 12.2344 8.72266C11.5312 9.25 10.2305 10.4102 9 10.4102C7.73437 10.4102 6.46875 9.25 5.73047 8.72266C2.14453 6.12109 1.125 5.34766 0.316406 4.71484C0.175781 4.60937 0 4.71484 0 4.89062V12.0625C0 13.0117 0.738281 13.75 1.6875 13.75H16.3125C17.2266 13.75 18 13.0117 18 12.0625V4.89062C18 4.71484 17.7891 4.60937 17.6484 4.71484ZM9 9.25C9.80859 9.28516 10.9687 8.23047 11.5664 7.80859C16.2422 4.43359 16.5937 4.11719 17.6484 3.27344C17.8594 3.13281 18 2.88672 18 2.60547V1.9375C18 1.02344 17.2266 0.25 16.3125 0.25H1.6875C0.738281 0.25 0 1.02344 0 1.9375V2.60547C0 2.88672 0.105469 3.13281 0.316406 3.27344C1.37109 4.11719 1.72266 4.43359 6.39844 7.80859C6.99609 8.23047 8.15625 9.28516 9 9.25Z" fill="currentColor"/>
</svg>
