<svg width="18" height="18" viewBox="0 0 18 18" fill="none" xmlns="http://www.w3.org/2000/svg">
<path d="M17.0357 10.7679C17.1562 10.2054 17.2366 9.60268 17.2366 9C17.2366 4.45982 13.5402 0.763393 9 0.763393C8.39732 0.763393 7.79464 0.84375 7.23214 0.964286C6.46875 0.361607 5.50446 0 4.5 0C2.00893 0 0 2.04911 0 4.5C0 5.54464 0.321429 6.50893 0.924107 7.27232C0.803571 7.83482 0.723214 8.4375 0.723214 9C0.723214 13.5804 4.41964 17.2768 8.95982 17.2768C9.5625 17.2768 10.1652 17.1964 10.7277 17.0759C11.4911 17.6786 12.4554 18 13.4598 18C15.9509 18 17.9598 15.9911 17.9598 13.5C18 12.4955 17.6384 11.5312 17.0357 10.7679ZM9.24107 14.4643C6.58929 14.4643 4.37946 13.2991 4.37946 11.8527C4.37946 11.2098 4.74107 10.6071 5.58482 10.6071C6.83036 10.6071 6.95089 12.4152 9.12053 12.4152C10.125 12.4152 10.808 11.9732 10.808 11.3705C10.808 10.6071 10.1652 10.4866 9.12053 10.2455C6.62946 9.60268 4.37946 9.36161 4.37946 6.75C4.37946 4.33929 6.75 3.45536 8.75893 3.45536C10.9687 3.45536 13.2187 4.33929 13.2187 5.70536C13.2187 6.38839 12.7768 6.99107 12.0134 6.99107C10.8884 6.99107 10.8482 5.625 9 5.625C7.95536 5.625 7.3125 5.90625 7.3125 6.54911C7.3125 7.3125 8.15625 7.39286 10.0848 7.875C11.7321 8.23661 13.7411 8.91964 13.7411 10.9688C13.7411 13.3393 11.4509 14.4643 9.24107 14.4643Z" fill="currentColor"/>
</svg>
