<svg width="16" height="16" viewBox="0 0 16 16" fill="none" xmlns="http://www.w3.org/2000/svg">
<path d="M8 0.25C3.71981 0.25 0.25 3.71978 0.25 8C0.25 12.2802 3.71981 15.75 8 15.75C12.2802 15.75 15.75 12.2802 15.75 8C15.75 3.71981 12.2802 0.25 8 0.25ZM12.0659 3.93412C14.1111 5.97937 14.2534 9.10541 12.712 11.2978L4.70219 3.288C6.89606 1.74563 10.0217 1.89003 12.0659 3.93412ZM3.93412 12.0659C1.88888 10.0206 1.74662 6.89459 3.28797 4.70222L11.2978 12.712C9.10397 14.2544 5.97825 14.11 3.93412 12.0659Z" fill="currentColor"/>
</svg>
