<svg width="18" height="18" viewBox="0 0 18 18" fill="none" xmlns="http://www.w3.org/2000/svg">
<path d="M18 9C18 4.06452 13.9355 0 9 0C4.02823 0 0 4.06452 0 9C0 13.9718 4.02823 18 9 18C13.9355 18 18 13.9718 18 9ZM9.21774 2.97581C11.2863 2.97581 13.4637 4.57258 13.4637 6.67742C13.4637 9.50806 10.4516 9.54435 10.4516 10.5605V10.5968C10.4516 10.8508 10.2339 11.0323 10.0161 11.0323H7.98387C7.72984 11.0323 7.54839 10.8508 7.54839 10.5968V10.4516C7.54839 8.96371 8.67339 8.38306 9.50806 7.91129C10.2339 7.5121 10.7056 7.22177 10.7056 6.67742C10.7056 5.95161 9.7621 5.47984 9.03629 5.47984C8.05645 5.47984 7.62097 5.95161 6.96774 6.78629C6.82258 6.96774 6.53226 7.00403 6.35081 6.85887L5.08065 5.91532C4.89919 5.77016 4.8629 5.51613 5.00806 5.29839C5.9879 3.81048 7.25806 2.97581 9.21774 2.97581ZM9 11.9758C9.90726 11.9758 10.6694 12.7379 10.6694 13.6452C10.6694 14.5887 9.90726 15.3145 9 15.3145C8.05645 15.3145 7.33065 14.5887 7.33065 13.6452C7.33065 12.7379 8.05645 11.9758 9 11.9758Z" fill="currentColor"/>
</svg>
