<svg width="19" height="18" viewBox="0 0 19 18" fill="none" xmlns="http://www.w3.org/2000/svg">
<path d="M6.13239 14.4948C6.13239 14.4204 6.05806 14.3461 5.94656 14.3461C5.83507 14.3461 5.76073 14.4204 5.76073 14.4948C5.76073 14.5691 5.83507 14.6434 5.94656 14.6062C6.05806 14.6062 6.13239 14.5691 6.13239 14.4948ZM4.98025 14.3089C4.98025 14.3833 5.05458 14.4948 5.16608 14.4948C5.24041 14.5319 5.35191 14.4948 5.38907 14.4204C5.38907 14.3461 5.35191 14.2718 5.24041 14.2346C5.12891 14.1974 5.01741 14.2346 4.98025 14.3089ZM6.65272 14.2718C6.54122 14.2718 6.46689 14.3461 6.46689 14.4576C6.46689 14.5319 6.57839 14.5691 6.68989 14.5319C6.80138 14.4948 6.87572 14.4576 6.83855 14.3833C6.83855 14.3089 6.72705 14.2346 6.65272 14.2718ZM9.06851 0C3.9396 0 0 3.9396 0 9.06851C0 13.1939 2.56446 16.7247 6.28106 17.9884C6.76422 18.0627 6.91288 17.7654 6.91288 17.5424C6.91288 17.2822 6.91288 16.0186 6.91288 15.2381C6.91288 15.2381 4.31126 15.7956 3.75377 14.1231C3.75377 14.1231 3.34494 13.0453 2.75029 12.7851C2.75029 12.7851 1.89547 12.1905 2.78745 12.1905C2.78745 12.1905 3.7166 12.2648 4.23693 13.1568C5.05458 14.6062 6.39256 14.1974 6.95005 13.9373C7.02438 13.3426 7.24738 12.9338 7.5447 12.6736C5.46341 12.4506 3.34494 12.1533 3.34494 8.58535C3.34494 7.5447 3.64227 7.06155 4.23693 6.39256C4.12543 6.13239 3.8281 5.16608 4.34843 3.86527C5.09175 3.64227 6.91288 4.86875 6.91288 4.86875C7.6562 4.64575 8.43669 4.57142 9.21718 4.57142C10.0348 4.57142 10.8153 4.64575 11.5586 4.86875C11.5586 4.86875 13.3426 3.6051 14.1231 3.86527C14.6434 5.16608 14.3089 6.13239 14.2346 6.39256C14.8292 7.06155 15.2009 7.5447 15.2009 8.58535C15.2009 12.1533 13.0081 12.4506 10.9268 12.6736C11.2613 12.9709 11.5586 13.5284 11.5586 14.4204C11.5586 15.6469 11.5215 17.2079 11.5215 17.5052C11.5215 17.7654 11.7073 18.0627 12.1905 17.9512C15.9071 16.7247 18.4344 13.1939 18.4344 9.06851C18.4344 3.9396 14.2346 0 9.06851 0ZM3.6051 12.8223C3.53077 12.8594 3.56794 12.9709 3.6051 13.0453C3.67944 13.0824 3.75377 13.1196 3.8281 13.0824C3.86527 13.0453 3.86527 12.9338 3.79094 12.8594C3.7166 12.8223 3.64227 12.7851 3.6051 12.8223ZM3.19628 12.525C3.15911 12.5993 3.19628 12.6364 3.27061 12.6736C3.34494 12.7108 3.41927 12.7108 3.45644 12.6364C3.45644 12.5993 3.41927 12.5621 3.34494 12.525C3.27061 12.4878 3.23344 12.4878 3.19628 12.525ZM4.38559 13.8629C4.34843 13.9001 4.34843 14.0116 4.45992 14.0859C4.53426 14.1603 4.64575 14.1974 4.68292 14.1231C4.72009 14.0859 4.72009 13.9744 4.64575 13.9001C4.57142 13.8258 4.45992 13.7886 4.38559 13.8629ZM3.97677 13.3054C3.90243 13.3426 3.90243 13.4541 3.97677 13.5284C4.0511 13.6028 4.12543 13.6399 4.19976 13.6028C4.23693 13.5656 4.23693 13.4541 4.19976 13.3798C4.12543 13.3054 4.0511 13.2683 3.97677 13.3054Z" fill="currentColor"/>
</svg>
