<svg width="16" height="16" viewBox="0 0 16 16" fill="none" xmlns="http://www.w3.org/2000/svg">
<path d="M10.5156 5C10.0625 2.20937 8.99375 0.25 7.75 0.25C6.50625 0.25 5.4375 2.20937 4.98438 5H10.5156ZM4.75 8C4.75 8.69375 4.7875 9.35938 4.85313 10H10.6438C10.7094 9.35938 10.7469 8.69375 10.7469 8C10.7469 7.30625 10.7094 6.64062 10.6438 6H4.85313C4.7875 6.64062 4.75 7.30625 4.75 8ZM14.8969 5C14.0031 2.87812 12.1938 1.2375 9.95938 0.575C10.7219 1.63125 11.2469 3.22187 11.5219 5H14.8969ZM5.5375 0.575C3.30625 1.2375 1.49375 2.87812 0.603125 5H3.97813C4.25 3.22187 4.775 1.63125 5.5375 0.575ZM15.2312 6H11.6469C11.7125 6.65625 11.75 7.32812 11.75 8C11.75 8.67188 11.7125 9.34375 11.6469 10H15.2281C15.4 9.35938 15.4969 8.69375 15.4969 8C15.4969 7.30625 15.4 6.64062 15.2312 6ZM3.75 8C3.75 7.32812 3.7875 6.65625 3.85313 6H0.26875C0.1 6.64062 0 7.30625 0 8C0 8.69375 0.1 9.35938 0.26875 10H3.85C3.7875 9.34375 3.75 8.67188 3.75 8ZM4.98438 11C5.4375 13.7906 6.50625 15.75 7.75 15.75C8.99375 15.75 10.0625 13.7906 10.5156 11H4.98438ZM9.9625 15.425C12.1937 14.7625 14.0062 13.1219 14.9 11H11.525C11.25 12.7781 10.725 14.3688 9.9625 15.425ZM0.603125 11C1.49688 13.1219 3.30625 14.7625 5.54063 15.425C4.77813 14.3688 4.25313 12.7781 3.97813 11H0.603125Z" fill="currentColor"/>
</svg>
