<svg width="18" height="18" viewBox="0 0 18 18" fill="none" xmlns="http://www.w3.org/2000/svg">
<path d="M16.0714 0H1.92857C0.84375 0 0 0.883929 0 1.92857V16.0714C0 17.1562 0.84375 18 1.92857 18H7.43304V11.8929H4.90179V9H7.43304V6.83036C7.43304 4.33929 8.91964 2.93304 11.1696 2.93304C12.2946 2.93304 13.4196 3.13393 13.4196 3.13393V5.58482H12.1741C10.9286 5.58482 10.5268 6.34821 10.5268 7.15179V9H13.2991L12.8571 11.8929H10.5268V18H16.0714C17.1161 18 18 17.1562 18 16.0714V1.92857C18 0.883929 17.1161 0 16.0714 0Z" fill="currentColor"/>
</svg>
