<svg width="18" height="18" viewBox="0 0 18 18" fill="none" xmlns="http://www.w3.org/2000/svg">
<path d="M16.7143 0H1.24554C0.5625 0 0 0.602679 0 1.32589V16.7143C0 17.4375 0.5625 18 1.24554 18H16.7143C17.3973 18 18 17.4375 18 16.7143V1.32589C18 0.602679 17.3973 0 16.7143 0ZM5.42411 15.4286H2.77232V6.87054H5.42411V15.4286ZM4.09821 5.66518C3.21429 5.66518 2.53125 4.98214 2.53125 4.13839C2.53125 3.29464 3.21429 2.57143 4.09821 2.57143C4.94196 2.57143 5.625 3.29464 5.625 4.13839C5.625 4.98214 4.94196 5.66518 4.09821 5.66518ZM15.4286 15.4286H12.7366V11.25C12.7366 10.2857 12.7366 9 11.3705 9C9.96429 9 9.76339 10.0848 9.76339 11.2098V15.4286H7.11161V6.87054H9.64286V8.03572H9.68304C10.0446 7.35268 10.9286 6.62946 12.2143 6.62946C14.9063 6.62946 15.4286 8.4375 15.4286 10.7277V15.4286Z" fill="currentColor"/>
</svg>
